<svg width='200' height='200' fill="#313a7f" xmlns:dc="http://purl.org/dc/elements/1.1/" xmlns:cc="http://creativecommons.org/ns#" xmlns:rdf="http://www.w3.org/1999/02/22-rdf-syntax-ns#" xmlns:svg="http://www.w3.org/2000/svg" xmlns="http://www.w3.org/2000/svg" xmlns:sodipodi="http://sodipodi.sourceforge.net/DTD/sodipodi-0.dtd" xmlns:inkscape="http://www.inkscape.org/namespaces/inkscape" version="1.1" x="0px" y="0px" viewBox="0 0 100 100"><g transform="translate(0,-952.36218)"><path class="filler" style="font-size:medium;font-style:normal;font-variant:normal;font-weight:normal;font-stretch:normal;text-indent:0;text-align:start;text-decoration:none;line-height:normal;letter-spacing:normal;word-spacing:normal;text-transform:none;direction:ltr;block-progression:tb;writing-mode:lr-tb;text-anchor:start;baseline-shift:baseline;opacity:1;color:#313a7f;fill:#313a7f;fill-opacity:1;stroke:none;stroke-width:1.99999988000000010;marker:none;visibility:visible;display:inline;overflow:visible;enable-background:accumulate;font-family:Sans;-inkscape-font-specification:Sans" d="M 49.78125 17 A 1.0000999 1.0000999 0 0 0 49.625 17.0625 L 7.625 34.0625 A 1.0000999 1.0000999 0 0 0 7.625 35.90625 L 23.875 42.46875 L 7.625 49.0625 A 1.0000999 1.0000999 0 0 0 7.625 50.90625 L 23.875 57.46875 L 7.625 64.0625 A 1.0000999 1.0000999 0 0 0 7.625 65.90625 L 49.625 82.90625 A 1.0000999 1.0000999 0 0 0 50.375 82.90625 L 92.375 65.90625 A 1.0000999 1.0000999 0 0 0 92.375 64.0625 L 76.125 57.46875 L 92.375 50.90625 A 1.0000999 1.0000999 0 0 0 92.375 49.0625 L 76.125 42.46875 L 92.375 35.90625 A 1.0000999 1.0000999 0 0 0 92.375 34.0625 L 50.375 17.0625 A 1.0000999 1.0000999 0 0 0 49.78125 17 z M 50 19.0625 L 89.34375 35 L 50 50.90625 L 10.65625 35 L 50 19.0625 z M 26.53125 43.5625 L 49.625 52.90625 A 1.0000999 1.0000999 0 0 0 50.375 52.90625 L 73.46875 43.5625 L 89.34375 50 L 50 65.90625 L 10.65625 50 L 26.53125 43.5625 z M 26.53125 58.5625 L 49.625 67.90625 A 1.0000999 1.0000999 0 0 0 50.375 67.90625 L 73.46875 58.5625 L 89.34375 65 L 50 80.90625 L 10.65625 65 L 26.53125 58.5625 z " transform="translate(0,952.36218)"/></g></svg>
