<svg width='200' height='200' fill="#313a7f" xmlns="http://www.w3.org/2000/svg" xmlns:xlink="http://www.w3.org/1999/xlink" version="1.1" x="0px" y="0px" viewBox="0 0 71.468 71.287" enable-background="new 0 0 71.468 71.287" xml:space="preserve"><g><path d="M60.274,0.005c-0.394,0.028-0.703,0.393-0.703,0.786v9.934c-0.028,0.028-0.028,0.056-0.057,0.056l-2.306,2.301V4.72   c0-0.477-0.479-0.87-0.929-0.786c-0.365,0.056-0.675,0.421-0.646,0.786v9.962l-2.082,2.077V8.396c0-0.449-0.449-0.87-0.899-0.814   c-0.394,0.056-0.703,0.421-0.703,0.814v8.756c-5.906-5.304-13.36-7.97-20.813-7.97c-7.96,0-15.947,3.031-22.022,9.093   c-12.15,12.124-12.15,31.796,0,43.919c12.15,12.124,31.866,12.124,44.017,0c10.744-10.692,12.01-27.278,3.77-39.373   c-0.281-0.449-0.591-0.898-0.929-1.319c-0.253-0.336-0.787-0.393-1.125-0.14c-0.337,0.252-0.394,0.786-0.141,1.123   c0.31,0.393,0.619,0.814,0.9,1.235c7.791,11.45,6.609,27.194-3.572,37.353c-11.56,11.534-30.235,11.534-41.767,0   c-11.561-11.506-11.561-30.141,0-41.675C21.6,8.088,39.854,7.919,51.442,18.864l-6.722,6.679c-3.825-3.536-8.69-5.304-13.585-5.304   c-5.119,0-10.266,1.964-14.147,5.865c-7.819,7.802-7.819,20.459,0,28.261c7.791,7.801,20.504,7.801,28.323,0   c6.778-6.764,7.678-17.231,2.644-24.978c-0.225-0.365-0.76-0.477-1.097-0.252c-0.366,0.225-0.479,0.758-0.253,1.095   c4.641,7.128,3.825,16.754-2.447,23.012c-7.2,7.185-18.845,7.185-26.073,0c-7.2-7.212-7.2-18.831,0-26.015   c7.031-7.016,18.254-7.184,25.511-0.561l-6.892,6.903c-1.631-1.347-3.571-2.049-5.568-2.049c-2.222,0-4.472,0.87-6.16,2.554   c-3.402,3.396-3.402,8.924,0,12.292c3.376,3.396,8.916,3.396,12.32,0c2.222-2.218,3.009-5.36,2.306-8.223   c-0.084-0.449-0.563-0.758-0.984-0.646c-0.422,0.084-0.703,0.589-0.563,1.01c0.591,2.329-0.056,4.911-1.884,6.764   c-2.785,2.778-7.313,2.778-10.098,0c-2.785-2.778-2.785-7.297,0-10.075c2.615-2.61,6.693-2.778,9.506-0.533l-4.162,4.182   c-0.338,0.253-0.394,0.842-0.057,1.15c0.31,0.337,0.9,0.281,1.153-0.056l4.528-4.491c0.254-0.084,0.45-0.309,0.535-0.562   l7.594-7.577c0.112-0.056,0.225-0.168,0.281-0.28l7.537-7.493c0.028-0.028,0.057-0.056,0.085-0.084h9.956   c0.422,0,0.816-0.365,0.816-0.786c0-0.421-0.395-0.813-0.816-0.786h-8.381l2.081-2.104h9.984c0.422,0.028,0.788-0.365,0.788-0.786   c0-0.421-0.366-0.786-0.788-0.786h-8.381l2.306-2.301c0-0.028,0.028-0.028,0.028-0.056h9.984c0.422,0,0.816-0.365,0.816-0.786   s-0.395-0.786-0.816-0.786h-9.506V0.792C61.146,0.342,60.696-0.051,60.274,0.005L60.274,0.005z"/></g></svg>
