<svg width='200' height='200' fill="#aaaaaa" xmlns="http://www.w3.org/2000/svg" viewBox="0 0 100 100" x="0px" y="0px"><defs><style>.a{fill: #313a7f;}</style></defs><title>100icons20172</title><path class="a" d="M9.63,54.38a.85.85,0,0,1-.85-.85V9A.85.85,0,0,1,10,8.24c9,4.6,18.07,14.86,18.07,27.41C28.08,46.85,20.67,54.38,9.63,54.38Zm.85-43.95V52.66c9.69-.36,15.91-7,15.91-17C26.38,24.39,18.59,15.06,10.48,10.43Z"/><path class="a" d="M16.66,39.84a3.57,3.57,0,1,1,3.57-3.58A3.58,3.58,0,0,1,16.66,39.84Zm0-5.45a1.87,1.87,0,1,0,1.87,1.87A1.88,1.88,0,0,0,16.66,34.39Z"/><path class="a" d="M43.4,73.47H41.67a3.36,3.36,0,0,1-3.35-3.35V28.29a3.36,3.36,0,0,1,3.35-3.35H43.4a3.36,3.36,0,0,1,3.35,3.35V70.11A3.36,3.36,0,0,1,43.4,73.47ZM41.67,26.63A1.66,1.66,0,0,0,40,28.29V70.11a1.66,1.66,0,0,0,1.65,1.65H43.4a1.66,1.66,0,0,0,1.65-1.65V28.29a1.66,1.66,0,0,0-1.65-1.65Z"/><path class="a" d="M42.53,26.63a.85.85,0,0,1-.85-.85V23.45a.85.85,0,0,1,1.7,0v2.33A.85.85,0,0,1,42.53,26.63Z"/><path class="a" d="M42.53,76.57a.85.85,0,0,1-.85-.85V73.39a.85.85,0,1,1,1.7,0v2.33A.85.85,0,0,1,42.53,76.57Z"/><path class="a" d="M42.53,24.3a.85.85,0,0,1-.6-.25l-5.51-5.51a2.12,2.12,0,0,1,1.5-3.63h9.22a2.12,2.12,0,0,1,1.5,3.63l-5.51,5.51A.85.85,0,0,1,42.53,24.3Zm-4.61-7.69a.42.42,0,0,0-.3.72l4.91,4.91,4.91-4.91h0a.42.42,0,0,0-.3-.72Z"/><path class="a" d="M42.53,85.66c-1.52,0-5.57,0-5.57-4a5.57,5.57,0,0,1,11.14,0C48.1,85.66,44.06,85.66,42.53,85.66Zm0-7.83a3.87,3.87,0,0,0-3.87,3.87c0,1.39.65,2.26,3.87,2.26s3.87-.86,3.87-2.26A3.87,3.87,0,0,0,42.53,77.83Z"/><path class="a" d="M45.31,35.43H39.76a.85.85,0,0,1,0-1.7h5.55a.85.85,0,1,1,0,1.7Z"/><path class="a" d="M45.31,66.24H39.76a.85.85,0,0,1,0-1.7h5.55a.85.85,0,1,1,0,1.7Z"/><path class="a" d="M58.89,73.47H57.77a3.66,3.66,0,0,1-3.66-3.66V22.32c0-1.62,2.55-11,2.84-12a.85.85,0,0,1,.82-.63h1.12a3.66,3.66,0,0,1,3.66,3.66v56.5A3.66,3.66,0,0,1,58.89,73.47Zm-.47-62.11c-1.07,4-2.61,10-2.61,11V69.81a2,2,0,0,0,2,2h1.12a2,2,0,0,0,2-2V13.31a2,2,0,0,0-2-2Z"/><path class="a" d="M61.1,35.43H55.55a.85.85,0,1,1,0-1.7H61.1a.85.85,0,1,1,0,1.7Z"/><path class="a" d="M61.1,66.24H55.55a.85.85,0,1,1,0-1.7H61.1a.85.85,0,1,1,0,1.7Z"/><path class="a" d="M80.36,76a.85.85,0,0,1-.85-.85V54.49h-2a5.91,5.91,0,0,1-5.9-5.9V17.7a.85.85,0,1,1,1.7,0V48.6a4.2,4.2,0,0,0,4.2,4.2h2V46.54a5.9,5.9,0,0,1,11.8,0V48.6a5.91,5.91,0,0,1-5.9,5.9h-4.2V75.13A.85.85,0,0,1,80.36,76Zm.85-23.19h4.2a4.2,4.2,0,0,0,4.2-4.2V46.54a4.2,4.2,0,0,0-8.4,0Z"/><path class="a" d="M84.83,78.83H75.77a.85.85,0,0,1-.85-.85V75.13a.85.85,0,0,1,.85-.85h9.06a.85.85,0,0,1,.85.85V78A.85.85,0,0,1,84.83,78.83Zm-8.21-1.7H84V76H76.62Z"/><path class="a" d="M29.22,91.85H9.55A.85.85,0,0,1,8.7,91V60.45a.85.85,0,0,1,.85-.85H29.22a.85.85,0,0,1,.85.85V91A.85.85,0,0,1,29.22,91.85ZM10.4,90.15h18V61.3h-18Z"/><path class="a" d="M77,18H67.94a.85.85,0,0,1-.85-.85V14.34a.85.85,0,0,1,.85-.85H77a.85.85,0,0,1,.85.85v2.85A.85.85,0,0,1,77,18Zm-8.21-1.7h7.36V15.19H68.79Z"/><path class="a" d="M13.94,76.57a.85.85,0,0,1-.85-.85V65.39a.85.85,0,0,1,1.7,0V75.72A.85.85,0,0,1,13.94,76.57Z"/><path class="a" d="M13.94,85.66a.85.85,0,0,1-.85-.85V80.9a.85.85,0,1,1,1.7,0v3.91A.85.85,0,0,1,13.94,85.66Z"/></svg>
