<?xml version="1.0" encoding="UTF-8" standalone="no"?>
<svg width="90px" height="100px" viewBox="0 0 90 100" version="1.1" xmlns="http://www.w3.org/2000/svg" xmlns:xlink="http://www.w3.org/1999/xlink">
    <!-- Generator: Sketch 43 (38999) - http://www.bohemiancoding.com/sketch -->
    <title>globe</title>
    <desc>Created with Sketch.</desc>
    <defs></defs>
    <g id="Page-1" stroke="none" stroke-width="1" fill="none" fill-rule="evenodd">
        <g id="Artboard" transform="translate(-11.000000, -17.000000)" fill-rule="nonzero">
            <g id="globe" transform="translate(11.000000, 17.000000)">
                <path d="M89.5702223,27.3142021 C89.0298229,23.9528247 87.1692133,21.9595767 85.2119307,20.3773171 C83.2546482,18.7950575 81.2217797,17.3 77.5,17.3 C70.4,17.3 64.7,23 64.7,30.1 C64.7,36.8 69.9,42.3 76.5,42.8 L79.7,55.1 L82.8581313,48.9267738 L88.5685049,51.3760197 L85.2119307,38.6526195 C89.5119307,36.5526195 90.2221112,32.5330924 89.5702223,27.3142021 Z M77.5,39.5 C72.3,39.5 68.1,35.3 68.1,30.1 C68.1,24.9 72.3,20.7 77.5,20.7 C82.7,20.7 86.9,24.9 86.9,30.1 C86.9,35.3 82.7,39.5 77.5,39.5 Z M77.5,36 C80.5375661,36 83,33.5375661 83,30.5 C83,27.4624339 80.5375661,25 77.5,25 C74.4624339,25 72,27.4624339 72,30.5 C72,33.5375661 74.4624339,36 77.5,36 Z" id="Shape" fill="#38417D"></path>
                <path d="M76.8,53.2 L74.6,44.9 C67.7,43.5 62.4,37.4 62.4,30.1 C62.4,24.6 65.4,19.7 69.8,17.1 C63.5,10.4 54.5,6.1 44.6,6.1 C39.8,6.1 35.2,7.1 31,8.9 L26.2,0 L23.5,1.5 C2,13.3 -5.9,40.3 5.9,61.8 C11.6,72.2 21,79.8 32.4,83.1 C35.1,83.9 37.9,84.4 40.7,84.7 L40.7,95.2 L26.6,95.2 C23.5,95.2 23.5,100 26.6,100 L60.5,100 C63.6,100 63.6,95.2 60.5,95.2 L46.7,95.2 L46.7,84.8 C53.4,84.5 60,82.7 66.1,79.4 L68.8,77.9 L64,69.1 C69.8,65.2 74.2,59.7 76.8,53.2 Z M60.6,75.4 C52.3,79.2 43,79.8 34.1,77.2 C24.3,74.3 16.1,67.8 11.2,58.8 C1.5,41.2 7.2,19.1 23.8,8.3 L25.7,11.7 C16.4,18 10.2,28.6 10.2,40.6 C10.2,59.7 25.6,75.1 44.7,75.1 C49.7,75.1 54.5,74 58.8,72 L60.6,75.4 Z" id="Shape" fill="#D1CECE"></path>
            </g>
        </g>
    </g>
</svg>